# xmcd
#
# Track frame offsets:
#	150
#	18188
#	56106
#	112554
#
# Disc length: 2184 seconds
#
# Revision: 1
# Processed by: cddbd v1.5.2PL0 Copyright (c) Steve Scherf et al.
# Submitted via: audiograbber 1.83.01
#
DISCID=23088604
DTITLE=Grateful Dead - 79-07-01 Seattle Centre Memorial Coliseum, Seattle WA
DYEAR=1900
DGENRE=
TTITLE0=Don't Ease Me In
TTITLE1=Samson and Delilah
TTITLE2=Sugaree
TTITLE3=Terrapin Station
EXTD=
EXTT0=
EXTT1=
EXTT2=
EXTT3=
PLAYORDER=
